<svg width="151.529mm" height="121.871mm" viewBox="0 0 151.529 121.871" xmlns="http://www.w3.org/2000/svg"><g id="svgGroup" stroke-linecap="round" fill-rule="evenodd" font-size="9pt" stroke="#000" stroke-width="0.25mm" fill="none" style="stroke:#000;stroke-width:0.25mm;fill:none"><path d="M 0 85.616 L 0 16.904 A 6 6 0 0 1 4.623 11.064 L 48.354 0.754 A 6 6 0 0 1 49.531 0.597 L 67.357 0.003 A 6 6 0 0 1 68.184 0.033 L 89.789 2.304 A 6 6 0 0 1 90.604 2.447 L 125.524 11.093 L 146.286 13.733 A 6 6 0 0 1 151.523 19.954 L 148.434 88.612 A 6 6 0 0 1 147.833 90.973 L 134.406 118.502 A 6 6 0 0 1 126.501 121.32 L 92.229 105.519 L 5.05 91.541 A 6 6 0 0 1 0 85.616 Z M 3 85.616 L 3 16.904 A 3 3 0 0 1 5.312 13.984 L 49.043 3.674 A 3 3 0 0 1 49.631 3.595 L 67.457 3.002 A 3 3 0 0 1 67.87 3.016 L 89.475 5.287 A 3 3 0 0 1 89.882 5.359 L 124.915 14.033 A 1 1 0 0 0 125.03 14.054 L 145.907 16.709 A 3 3 0 0 1 148.526 19.82 L 145.437 88.478 A 3 3 0 0 1 145.137 89.658 L 131.71 117.187 A 3 3 0 0 1 127.758 118.596 L 93.236 102.679 A 1 1 0 0 0 92.976 102.6 L 5.525 88.578 A 3 3 0 0 1 3 85.616 Z M 130.811 116.748 L 144.238 89.219 A 2 2 0 0 0 144.438 88.433 L 147.527 19.775 A 2 2 0 0 0 145.781 17.701 L 124.904 15.046 A 2 2 0 0 1 124.675 15.004 L 89.642 6.329 M 124.127 52.417 L 141.531 54.247 L 145.137 19.936 L 127.733 18.106 L 124.127 52.417 Z M 143.541 90.648 A 2 2 0 0 0 142.617 87.972 L 119.622 76.808 A 2 2 0 0 1 118.506 74.799 L 124.606 16.764 A 2 2 0 0 0 123.098 14.613 M 129.356 114.6 L 140.973 90.782 L 126.143 83.548 L 114.526 107.366 L 129.356 114.6 Z M 42.636 91.111 L 60.04 92.941 L 61.764 76.531 L 44.36 74.702 L 42.636 91.111 Z M 60.798 90.506 L 78.202 92.336 L 79.927 75.926 L 62.523 74.097 L 60.798 90.506 Z M 97.855 82.335 L 115.26 84.164 L 116.984 67.755 L 99.58 65.926 L 97.855 82.335 Z M 44.413 74.204 L 61.817 76.034 L 63.541 59.624 L 46.137 57.795 L 44.413 74.204 Z M 62.575 73.6 L 79.979 75.429 L 81.704 59.019 L 64.3 57.19 L 62.575 73.6 Z M 78.438 94.874 L 95.842 96.704 L 97.567 80.294 L 80.163 78.465 L 78.438 94.874 Z M 80.215 77.967 L 97.619 79.797 L 99.344 63.387 L 81.94 61.558 L 80.215 77.967 Z M 99.632 65.428 L 117.037 67.258 L 118.761 50.848 L 101.357 49.019 L 99.632 65.428 Z M 101.409 48.521 L 118.814 50.351 L 120.538 33.941 L 103.134 32.112 L 101.409 48.521 Z M 103.186 31.615 L 120.591 33.444 L 122.315 17.034 L 104.911 15.205 L 103.186 31.615 Z M 46.19 57.298 L 63.594 59.127 L 65.318 42.717 L 47.914 40.888 L 46.19 57.298 Z M 47.967 40.391 L 65.371 42.22 L 67.095 25.81 L 49.691 23.981 L 47.967 40.391 Z M 49.744 23.484 L 67.148 25.313 L 68.872 8.903 L 51.468 7.074 L 49.744 23.484 Z M 64.352 56.693 L 81.756 58.522 L 83.481 42.112 L 66.077 40.283 L 64.352 56.693 Z M 66.129 39.786 L 83.533 41.615 L 85.258 25.205 L 67.854 23.376 L 66.129 39.786 Z M 67.906 22.879 L 85.31 24.708 L 87.035 8.299 L 69.631 6.469 L 67.906 22.879 Z M 81.992 61.061 L 99.396 62.89 L 101.121 46.48 L 83.717 44.651 L 81.992 61.061 Z M 83.769 44.154 L 101.173 45.983 L 102.898 29.573 L 85.494 27.744 L 83.769 44.154 Z M 85.546 27.247 L 102.95 29.076 L 104.675 12.666 L 87.271 10.837 L 85.546 27.247 Z M 96.188 100.114 L 113.01 104.937 L 117.558 89.076 L 100.736 84.253 L 96.188 100.114 Z M 6.25 85.071 L 23.75 85.071 L 23.75 68.571 L 6.25 68.571 L 6.25 85.071 Z M 6.25 68.071 L 23.75 68.071 L 23.75 51.571 L 6.25 51.571 L 6.25 68.071 Z M 6.25 51.071 L 23.75 51.071 L 23.75 34.571 L 6.25 34.571 L 6.25 51.071 Z M 6.25 34.071 L 23.75 34.071 L 23.75 17.571 L 6.25 17.571 L 6.25 34.071 Z M 24.25 85.071 L 41.75 85.071 L 41.75 68.571 L 24.25 68.571 L 24.25 85.071 Z M 24.25 68.071 L 41.75 68.071 L 41.75 51.571 L 24.25 51.571 L 24.25 68.071 Z M 24.25 51.071 L 41.75 51.071 L 41.75 34.571 L 24.25 34.571 L 24.25 51.071 Z M 24.25 34.071 L 41.75 34.071 L 41.75 17.571 L 24.25 17.571 L 24.25 34.071 Z M 6 16.904 m -2 0 a 2 2 0 0 0 4 0 a 2 2 0 0 0 -4 0 z M 49.731 6.594 m -2 0 a 2 2 0 0 0 4 0 a 2 2 0 0 0 -4 0 z M 67.557 6 m -2 0 a 2 2 0 0 0 4 0 a 2 2 0 0 0 -4 0 z M 89.161 8.271 m -2 0 a 2 2 0 0 0 4 0 a 2 2 0 0 0 -4 0 z M 129.014 115.871 m -2 0 a 2 2 0 0 0 4 0 a 2 2 0 0 0 -4 0 z M 92.817 103.588 m -2 0 a 2 2 0 0 0 4 0 a 2 2 0 0 0 -4 0 z M 6 85.616 m -2 0 a 2 2 0 0 0 4 0 a 2 2 0 0 0 -4 0 z M 4 85.616 4 16.904 M 5.541 14.958 49.272 4.647 M 49.665 4.595 67.49 4.001 M 67.766 4.011 89.37 6.282 M 93.655 101.771 128.176 117.688 M 5.683 87.591 93.134 101.613" vector-effect="non-scaling-stroke"/></g></svg>