0
SECTION
2
HEADER
9
$INSUNITS
70
4
0
ENDSEC
0
SECTION
2
TABLES
0
TABLE
2
LTYPE
0
LTYPE
72
65
70
64
2
CONTINUOUS
3
______
73
0
40
0
0
ENDTAB
0
TABLE
2
LAYER
0
ENDTAB
0
ENDSEC
0
SECTION
2
ENTITIES
0
LINE
8
0
10
83.4
20
-141.7951331
11
83.4
21
-73.0832848
0
ARC
8
0
10
91
20
-73.0832848
40
7.6
50
103.266741
51
180
0
LINE
8
0
10
89.2564663
20
-65.685982
11
132.9870235
21
-55.3753173
0
ARC
8
0
10
134.7311077
20
-62.7724904
40
7.6
50
91.9071614
51
103.266741
0
LINE
8
0
10
134.4781788
20
-55.1767003
11
152.3039411
21
-54.583128
0
ARC
8
0
10
152.55687
20
-62.1789181
40
7.6
50
83.9999979
51
91.9071614
0
LINE
8
0
10
153.3512864
20
-54.6205517
11
174.9558317
21
-56.8912809
0
ARC
8
0
10
174.1614153
20
-64.4496473
40
7.6
50
76.097636
51
83.9999979
0
LINE
8
0
10
175.9880707
20
-57.0724303
11
210.8176725
21
-65.6965064
0
LINE
8
0
10
210.8176725
20
-65.6965064
11
231.4869464
21
-68.3242707
0
ARC
8
0
10
230.5290055
20
-75.8636572
40
7.6
50
357.4241569
51
442.7498371
0
LINE
8
0
10
238.1213265
20
-76.2052146
11
235.0325948
21
-144.8632051
0
ARC
8
0
10
227.4402737
20
-144.5216477
40
7.6
50
334.0000012
51
357.4241569
0
LINE
8
0
10
234.2711086
20
-147.8532684
11
220.8444743
21
-175.3819483
0
ARC
8
0
10
214.0136394
20
-172.0503277
40
7.6
50
245.2476108
51
334.0000012
0
LINE
8
0
10
210.8315379
20
-178.9520832
11
176.759124
21
-163.2427646
0
LINE
8
0
10
176.759124
20
-163.2427646
11
89.7967895
21
-149.2992842
0
ARC
8
0
10
91
20
-141.7951331
40
7.6
50
180
51
260.890766
0
LINE
8
0
10
86.5
20
-141.7951331
11
86.5
21
-73.0832848
0
ARC
8
0
10
91
20
-73.0832848
40
4.5
50
103.266741
51
180
0
LINE
8
0
10
89.9680068
20
-68.7032175
11
133.6984263
21
-58.3925853
0
ARC
8
0
10
134.7311077
20
-62.7724904
40
4.5
50
91.9071614
51
103.266741
0
LINE
8
0
10
134.5813472
20
-58.2749831
11
152.4071094
21
-57.6814108
0
ARC
8
0
10
152.55687
20
-62.1789181
40
4.5
50
83.9999979
51
91.9071614
0
LINE
8
0
10
153.0272482
20
-57.7035696
11
174.6317935
21
-59.9742988
0
ARC
8
0
10
174.1614153
20
-64.4496473
40
4.5
50
76.0928363
51
83.9999979
0
LINE
8
0
10
175.2429876
20
-60.0815583
11
210.2477234
21
-68.7489988
0
LINE
8
0
10
210.2477234
20
-68.7489988
11
231.0965396
21
-71.399589
0
ARC
8
0
10
230.5290055
20
-75.8636572
40
4.5
50
357.4241569
51
442.7546364
0
LINE
8
0
10
235.0244587
20
-76.0658952
11
231.935727
21
-144.7238857
0
ARC
8
0
10
227.4402737
20
-144.5216477
40
4.5
50
334.0000012
51
357.4241569
0
LINE
8
0
10
231.484847
20
-146.4943179
11
218.0582127
21
-174.0229978
0
ARC
8
0
10
214.0136394
20
-172.0503277
40
4.5
50
245.2476108
51
334.0000012
0
LINE
8
0
10
212.1295003
20
-176.1368934
11
177.6703736
21
-160.2492782
0
LINE
8
0
10
177.6703736
20
-160.2492782
11
90.2875727
21
-146.2383805
0
ARC
8
0
10
91
20
-141.7951331
40
4.5
50
180
51
260.890766
0
LINE
8
0
10
84.6
20
-141.7951331
11
84.6
21
-73.0832848
0
ARC
8
0
10
91
20
-73.0832848
40
6.4
50
103.266741
51
180
0
LINE
8
0
10
89.5312975
20
-66.8540864
11
133.2624052
21
-56.543292
0
ARC
8
0
10
134.7311077
20
-62.7724904
40
6.4
50
91.9071614
51
103.266741
0
LINE
8
0
10
134.518115
20
-56.3760356
11
152.3435947
21
-55.7824728
0
ARC
8
0
10
152.55687
20
-62.1789181
40
6.4
50
83.9999979
51
91.9071614
0
LINE
8
0
10
153.2258523
20
-55.8139779
11
174.8303976
21
-58.0847071
0
ARC
8
0
10
174.1614153
20
-64.4496473
40
6.4
50
76.095452
51
83.9999979
0
LINE
8
0
10
175.6996515
20
-58.237254
11
210.597047
21
-66.8781164
0
LINE
8
0
10
210.597047
20
-66.8781164
11
231.3358846
21
-69.5147246
0
ARC
8
0
10
230.5290055
20
-75.8636572
40
6.4
50
357.4241569
51
442.7520216
0
LINE
8
0
10
236.9225261
20
-76.1515673
11
233.8338072
21
-144.809275
0
ARC
8
0
10
227.4402737
20
-144.5216477
40
6.4
50
334.0000012
51
357.4241569
0
LINE
8
0
10
233.1925557
20
-147.3272231
11
219.7659214
21
-174.855903
0
ARC
8
0
10
214.0136394
20
-172.0503277
40
6.4
50
245.2476108
51
334.0000012
0
LINE
8
0
10
211.333975
20
-177.8623323
11
177.1118657
21
-162.0839956
0
LINE
8
0
10
177.1118657
20
-162.0839956
11
89.9870492
21
-148.1144629
0
ARC
8
0
10
91
20
-141.7951331
40
6.4
50
180
51
260.890766
0
LINE
8
0
10
85
20
-141.7951331
11
85
21
-73.0832848
0
ARC
8
0
10
91
20
-73.0832848
40
6
50
103.266741
51
180
0
LINE
8
0
10
89.6230914
20
-67.2434113
11
133.3541991
21
-56.9326169
0
ARC
8
0
10
134.7311077
20
-62.7724904
40
6
50
91.9071614
51
103.266741
0
LINE
8
0
10
134.531427
20
-56.775814
11
152.3571893
21
-56.1822417
0
ARC
8
0
10
152.55687
20
-62.1789181
40
6
50
83.9999979
51
91.9071614
0
LINE
8
0
10
153.1840409
20
-56.2117867
11
174.7885862
21
-58.4825159
0
ARC
8
0
10
174.1614153
20
-64.4496473
40
6
50
76.0928363
51
83.9999979
0
LINE
8
0
10
175.6035117
20
-58.6255286
11
210.5235053
21
-67.2719864
0
LINE
8
0
10
210.5235053
20
-67.2719864
11
231.2857176
21
-69.9115662
0
ARC
8
0
10
230.5290055
20
-75.8636572
40
6
50
357.4241569
51
442.7546364
0
LINE
8
0
10
236.5229431
20
-76.1333078
11
233.4342114
21
-144.7912983
0
ARC
8
0
10
227.4402737
20
-144.5216477
40
6
50
334.0000012
51
357.4241569
0
LINE
8
0
10
232.8330381
20
-147.1518746
11
219.4064038
21
-174.6805545
0
ARC
8
0
10
214.0136394
20
-172.0503277
40
6
50
245.2476108
51
334.0000012
0
LINE
8
0
10
211.501454
20
-177.499082
11
177.2294463
21
-161.6977393
0
LINE
8
0
10
177.2294463
20
-161.6977393
11
90.050097
21
-147.7194629
0
ARC
8
0
10
91
20
-141.7951331
40
6
50
180
51
260.890766
0
LINE
8
0
10
88
20
-141.7951331
11
88
21
-73.0832848
0
ARC
8
0
10
91
20
-73.0832848
40
3
50
103.266741
51
180
0
LINE
8
0
10
90.3115456
20
-70.163348
11
134.0426534
21
-59.8525537
0
ARC
8
0
10
134.7311077
20
-62.7724904
40
3
50
91.9071614
51
103.266741
0
LINE
8
0
10
134.6312674
20
-59.7741522
11
152.4570296
21
-59.1805799
0
ARC
8
0
10
152.55687
20
-62.1789181
40
3
50
83.9999979
51
91.9071614
0
LINE
8
0
10
152.8704555
20
-59.1953524
11
174.4750008
21
-61.4660816
0
ARC
8
0
10
174.1614153
20
-64.4496473
40
3
50
76.0928363
51
83.9999979
0
LINE
8
0
10
174.8824635
20
-61.537588
11
209.9154468
21
-70.2120228
0
ARC
8
0
10
210.1557962
20
-69.2413363
40
1
50
256.0928363
51
262.7546364
0
LINE
8
0
10
210.0296775
20
-70.2333514
11
230.9073615
21
-72.8876117
0
ARC
8
0
10
230.5290055
20
-75.8636572
40
3
50
357.4241569
51
442.7546364
0
LINE
8
0
10
233.5259743
20
-75.9984826
11
230.4372426
21
-144.656473
0
ARC
8
0
10
227.4402737
20
-144.5216477
40
3
50
334.0000012
51
357.4241569
0
LINE
8
0
10
230.1364597
20
-145.8371631
11
216.7100216
21
-173.3654411
0
ARC
8
0
10
214.0136394
20
-172.0503277
40
3
50
245.2476108
51
334.0000012
0
LINE
8
0
10
212.7575466
20
-174.7747048
11
178.2360467
21
-158.858332
0
ARC
8
0
10
177.8173491
20
-159.7664577
40
1
50
65.2476108
51
80.890766
0
LINE
8
0
10
177.9756663
20
-158.7790694
11
90.5250484
21
-144.757298
0
ARC
8
0
10
91
20
-141.7951331
40
3
50
180
51
260.890766
0
ENDSEC
0
EOF