0
SECTION
2
HEADER
9
$INSUNITS
70
4
0
ENDSEC
0
SECTION
2
TABLES
0
TABLE
2
LTYPE
0
LTYPE
72
65
70
64
2
CONTINUOUS
3
______
73
0
40
0
0
ENDTAB
0
TABLE
2
LAYER
0
ENDTAB
0
ENDSEC
0
SECTION
2
ENTITIES
0
LINE
8
0
10
85
20
-141.7951331
11
85
21
-73.0832848
0
ARC
8
0
10
91
20
-73.0832848
40
6
50
103.266741
51
180
0
LINE
8
0
10
89.6230914
20
-67.2434113
11
133.3541991
21
-56.9326169
0
ARC
8
0
10
134.7311077
20
-62.7724904
40
6
50
91.9071614
51
103.266741
0
LINE
8
0
10
134.531427
20
-56.775814
11
152.3571893
21
-56.1822417
0
ARC
8
0
10
152.55687
20
-62.1789181
40
6
50
83.9999979
51
91.9071614
0
LINE
8
0
10
153.1840409
20
-56.2117867
11
174.7885862
21
-58.4825159
0
ARC
8
0
10
174.1614153
20
-64.4496473
40
6
50
76.0928363
51
83.9999979
0
LINE
8
0
10
175.6035117
20
-58.6255286
11
210.5235053
21
-67.2719864
0
LINE
8
0
10
210.5235053
20
-67.2719864
11
231.2857176
21
-69.9115662
0
ARC
8
0
10
230.5290055
20
-75.8636572
40
6
50
357.4241569
51
442.7546364
0
LINE
8
0
10
236.5229431
20
-76.1333078
11
233.4342114
21
-144.7912983
0
ARC
8
0
10
227.4402737
20
-144.5216477
40
6
50
334.0000012
51
357.4241569
0
LINE
8
0
10
232.8330381
20
-147.1518746
11
219.4064038
21
-174.6805545
0
ARC
8
0
10
214.0136394
20
-172.0503277
40
6
50
245.2476108
51
334.0000012
0
LINE
8
0
10
211.501454
20
-177.499082
11
177.2294463
21
-161.6977393
0
LINE
8
0
10
177.2294463
20
-161.6977393
11
90.050097
21
-147.7194629
0
ARC
8
0
10
91
20
-141.7951331
40
6
50
180
51
260.890766
0
LINE
8
0
10
177.570818
20
-84.5159523
11
236.5459663
21
-90.7144901
0
LINE
8
0
10
237.6450167
20
-89.8244967
11
239.1293208
21
-75.7022857
0
LINE
8
0
10
238.2393274
20
-74.6032353
11
179.2641791
21
-68.4046975
0
LINE
8
0
10
178.1651287
20
-69.2946909
11
176.6808246
21
-83.4169019
0
ARC
8
0
10
236.6504948
20
-89.7199682
40
1
50
263.9999979
51
353.9999979
0
ARC
8
0
10
238.1347989
20
-75.5977572
40
1
50
353.9999979
51
83.9999979
0
ARC
8
0
10
179.1596506
20
-69.3992194
40
1
50
83.9999979
51
173.9999979
0
ARC
8
0
10
177.6753465
20
-83.5214304
40
1
50
173.9999979
51
263.9999979
0
LINE
8
0
10
166.6683649
20
-150.1298339
11
219.9668519
21
-176.125243
0
LINE
8
0
10
221.304017
20
-175.6648201
11
227.5288874
21
-162.9019446
0
LINE
8
0
10
227.0684645
20
-161.5647795
11
173.7699775
21
-135.5693704
0
LINE
8
0
10
172.4328124
20
-136.0297933
11
166.207942
21
-148.7926688
0
ARC
8
0
10
220.405223
20
-175.226449
40
1
50
244.0000012
51
334.0000012
0
ARC
8
0
10
226.6300934
20
-162.4635735
40
1
50
334.0000012
51
64.0000012
0
ARC
8
0
10
173.3316064
20
-136.4681644
40
1
50
64.0000012
51
154.0000012
0
ARC
8
0
10
167.106736
20
-149.2310399
40
1
50
154.0000012
51
244.0000012
0
CIRCLE
8
0
10
109
20
-87.1
40
1.1
0
CIRCLE
8
0
10
109
20
-138.1
40
1.1
0
CIRCLE
8
0
10
170.9823284
20
-76.885467
40
1.1
0
CIRCLE
8
0
10
163.5137696
20
-147.9440563
40
1.1
0
CIRCLE
8
0
10
209.6104457
20
-139.8682308
40
1.1
0
CIRCLE
8
0
10
109
20
-87.1
40
2.05
0
CIRCLE
8
0
10
109
20
-138.1
40
2.05
0
CIRCLE
8
0
10
170.9823284
20
-76.885467
40
2.05
0
CIRCLE
8
0
10
163.5137696
20
-147.9440563
40
2.05
0
CIRCLE
8
0
10
209.6104457
20
-139.8682308
40
2.05
0
ENDSEC
0
EOF