0
SECTION
2
HEADER
9
$INSUNITS
70
4
0
ENDSEC
0
SECTION
2
TABLES
0
TABLE
2
LTYPE
0
LTYPE
72
65
70
64
2
CONTINUOUS
3
______
73
0
40
0
0
ENDTAB
0
TABLE
2
LAYER
0
ENDTAB
0
ENDSEC
0
SECTION
2
ENTITIES
0
LINE
8
0
10
83.4
20
-141.7951331
11
83.4
21
-73.0832848
0
ARC
8
0
10
91
20
-73.0832848
40
7.6
50
103.266741
51
180
0
LINE
8
0
10
89.2564663
20
-65.685982
11
132.9870235
21
-55.3753173
0
ARC
8
0
10
134.7311077
20
-62.7724904
40
7.6
50
91.9071614
51
103.266741
0
LINE
8
0
10
134.4781788
20
-55.1767003
11
152.3039411
21
-54.583128
0
ARC
8
0
10
152.55687
20
-62.1789181
40
7.6
50
83.9999979
51
91.9071614
0
LINE
8
0
10
153.3512864
20
-54.6205517
11
174.9558317
21
-56.8912809
0
ARC
8
0
10
174.1614153
20
-64.4496473
40
7.6
50
76.097636
51
83.9999979
0
LINE
8
0
10
175.9880707
20
-57.0724303
11
210.8176725
21
-65.6965064
0
LINE
8
0
10
210.8176725
20
-65.6965064
11
231.4869464
21
-68.3242707
0
ARC
8
0
10
230.5290055
20
-75.8636572
40
7.6
50
357.4241569
51
442.7498371
0
LINE
8
0
10
238.1213265
20
-76.2052146
11
235.0325948
21
-144.8632051
0
ARC
8
0
10
227.4402737
20
-144.5216477
40
7.6
50
334.0000012
51
357.4241569
0
LINE
8
0
10
234.2711086
20
-147.8532684
11
220.8444743
21
-175.3819483
0
ARC
8
0
10
214.0136394
20
-172.0503277
40
7.6
50
245.2476108
51
334.0000012
0
LINE
8
0
10
210.8315379
20
-178.9520832
11
176.759124
21
-163.2427646
0
LINE
8
0
10
176.759124
20
-163.2427646
11
89.7967895
21
-149.2992842
0
ARC
8
0
10
91
20
-141.7951331
40
7.6
50
180
51
260.890766
0
LINE
8
0
10
84.6
20
-141.7951331
11
84.6
21
-73.0832848
0
ARC
8
0
10
91
20
-73.0832848
40
6.4
50
103.266741
51
180
0
LINE
8
0
10
89.5312975
20
-66.8540864
11
133.2624052
21
-56.543292
0
ARC
8
0
10
134.7311077
20
-62.7724904
40
6.4
50
91.9071614
51
103.266741
0
LINE
8
0
10
134.518115
20
-56.3760356
11
152.3435947
21
-55.7824728
0
ARC
8
0
10
152.55687
20
-62.1789181
40
6.4
50
83.9999979
51
91.9071614
0
LINE
8
0
10
153.2258523
20
-55.8139779
11
174.8303976
21
-58.0847071
0
ARC
8
0
10
174.1614153
20
-64.4496473
40
6.4
50
76.095452
51
83.9999979
0
LINE
8
0
10
175.6996515
20
-58.237254
11
210.597047
21
-66.8781164
0
LINE
8
0
10
210.597047
20
-66.8781164
11
231.3358846
21
-69.5147246
0
ARC
8
0
10
230.5290055
20
-75.8636572
40
6.4
50
357.4241569
51
442.7520216
0
LINE
8
0
10
236.9225261
20
-76.1515673
11
233.8338072
21
-144.809275
0
ARC
8
0
10
227.4402737
20
-144.5216477
40
6.4
50
334.0000012
51
357.4241569
0
LINE
8
0
10
233.1925557
20
-147.3272231
11
219.7659214
21
-174.855903
0
ARC
8
0
10
214.0136394
20
-172.0503277
40
6.4
50
245.2476108
51
334.0000012
0
LINE
8
0
10
211.333975
20
-177.8623323
11
177.1118657
21
-162.0839956
0
LINE
8
0
10
177.1118657
20
-162.0839956
11
89.9870492
21
-148.1144629
0
ARC
8
0
10
91
20
-141.7951331
40
6.4
50
180
51
260.890766
0
ENDSEC
0
EOF