0
SECTION
2
HEADER
9
$INSUNITS
70
4
0
ENDSEC
0
SECTION
2
TABLES
0
TABLE
2
LTYPE
0
LTYPE
72
65
70
64
2
CONTINUOUS
3
______
73
0
40
0
0
ENDTAB
0
TABLE
2
LAYER
0
ENDTAB
0
ENDSEC
0
SECTION
2
ENTITIES
0
LINE
8
0
10
91.25
20
-141.25
11
108.75
21
-141.25
0
LINE
8
0
10
108.75
20
-141.25
11
108.75
21
-124.75
0
LINE
8
0
10
108.75
20
-124.75
11
91.25
21
-124.75
0
LINE
8
0
10
91.25
20
-124.75
11
91.25
21
-141.25
0
LINE
8
0
10
91.25
20
-124.25
11
108.75
21
-124.25
0
LINE
8
0
10
108.75
20
-124.25
11
108.75
21
-107.75
0
LINE
8
0
10
108.75
20
-107.75
11
91.25
21
-107.75
0
LINE
8
0
10
91.25
20
-107.75
11
91.25
21
-124.25
0
LINE
8
0
10
91.25
20
-107.25
11
108.75
21
-107.25
0
LINE
8
0
10
108.75
20
-107.25
11
108.75
21
-90.75
0
LINE
8
0
10
108.75
20
-90.75
11
91.25
21
-90.75
0
LINE
8
0
10
91.25
20
-90.75
11
91.25
21
-107.25
0
LINE
8
0
10
91.25
20
-90.25
11
108.75
21
-90.25
0
LINE
8
0
10
108.75
20
-90.25
11
108.75
21
-73.75
0
LINE
8
0
10
108.75
20
-73.75
11
91.25
21
-73.75
0
LINE
8
0
10
91.25
20
-73.75
11
91.25
21
-90.25
0
LINE
8
0
10
109.25
20
-141.25
11
126.75
21
-141.25
0
LINE
8
0
10
126.75
20
-141.25
11
126.75
21
-124.75
0
LINE
8
0
10
126.75
20
-124.75
11
109.25
21
-124.75
0
LINE
8
0
10
109.25
20
-124.75
11
109.25
21
-141.25
0
LINE
8
0
10
109.25
20
-124.25
11
126.75
21
-124.25
0
LINE
8
0
10
126.75
20
-124.25
11
126.75
21
-107.75
0
LINE
8
0
10
126.75
20
-107.75
11
109.25
21
-107.75
0
LINE
8
0
10
109.25
20
-107.75
11
109.25
21
-124.25
0
LINE
8
0
10
109.25
20
-107.25
11
126.75
21
-107.25
0
LINE
8
0
10
126.75
20
-107.25
11
126.75
21
-90.75
0
LINE
8
0
10
126.75
20
-90.75
11
109.25
21
-90.75
0
LINE
8
0
10
109.25
20
-90.75
11
109.25
21
-107.25
0
LINE
8
0
10
109.25
20
-90.25
11
126.75
21
-90.25
0
LINE
8
0
10
126.75
20
-90.25
11
126.75
21
-73.75
0
LINE
8
0
10
126.75
20
-73.75
11
109.25
21
-73.75
0
LINE
8
0
10
109.25
20
-73.75
11
109.25
21
-90.25
0
LINE
8
0
10
127.6355736
20
-147.2901816
11
145.0397068
21
-149.1194297
0
LINE
8
0
10
145.0397068
20
-149.1194297
11
146.7644264
21
-132.7098184
0
LINE
8
0
10
146.7644264
20
-132.7098184
11
129.3602932
21
-130.8805703
0
LINE
8
0
10
129.3602932
20
-130.8805703
11
127.6355736
21
-147.2901816
0
LINE
8
0
10
129.4125575
20
-130.3833094
11
146.8166907
21
-132.2125575
0
LINE
8
0
10
146.8166907
20
-132.2125575
11
148.5414103
21
-115.8029462
0
LINE
8
0
10
148.5414103
20
-115.8029462
11
131.1372771
21
-113.9736981
0
LINE
8
0
10
131.1372771
20
-113.9736981
11
129.4125575
21
-130.3833094
0
LINE
8
0
10
131.1895414
20
-113.4764372
11
148.5936746
21
-115.3056853
0
LINE
8
0
10
148.5936746
20
-115.3056853
11
150.3183942
21
-98.896074
0
LINE
8
0
10
150.3183942
20
-98.896074
11
132.914261
21
-97.0668259
0
LINE
8
0
10
132.914261
20
-97.0668259
11
131.1895414
21
-113.4764372
0
LINE
8
0
10
132.9665253
20
-96.569565
11
150.3706585
21
-98.3988131
0
LINE
8
0
10
150.3706585
20
-98.3988131
11
152.0953781
21
-81.9892018
0
LINE
8
0
10
152.0953781
20
-81.9892018
11
134.6912449
21
-80.1599537
0
LINE
8
0
10
134.6912449
20
-80.1599537
11
132.9665253
21
-96.569565
0
LINE
8
0
10
134.7435092
20
-79.6626928
11
152.1476424
21
-81.4919409
0
LINE
8
0
10
152.1476424
20
-81.4919409
11
153.872362
21
-65.0823296
0
LINE
8
0
10
153.872362
20
-65.0823296
11
136.4682288
21
-63.2530815
0
LINE
8
0
10
136.4682288
20
-63.2530815
11
134.7435092
21
-79.6626928
0
LINE
8
0
10
145.7982889
20
-146.6853892
11
163.2024221
21
-148.5146373
0
LINE
8
0
10
163.2024221
20
-148.5146373
11
164.9271417
21
-132.105026
0
LINE
8
0
10
164.9271417
20
-132.105026
11
147.5230085
21
-130.2757779
0
LINE
8
0
10
147.5230085
20
-130.2757779
11
145.7982889
21
-146.6853892
0
LINE
8
0
10
147.5752728
20
-129.778517
11
164.979406
21
-131.6077651
0
LINE
8
0
10
164.979406
20
-131.6077651
11
166.7041256
21
-115.1981538
0
LINE
8
0
10
166.7041256
20
-115.1981538
11
149.2999924
21
-113.3689057
0
LINE
8
0
10
149.2999924
20
-113.3689057
11
147.5752728
21
-129.778517
0
LINE
8
0
10
149.3522567
20
-112.8716448
11
166.7563899
21
-114.7008929
0
LINE
8
0
10
166.7563899
20
-114.7008929
11
168.4811095
21
-98.2912816
0
LINE
8
0
10
168.4811095
20
-98.2912816
11
151.0769763
21
-96.4620335
0
LINE
8
0
10
151.0769763
20
-96.4620335
11
149.3522567
21
-112.8716448
0
LINE
8
0
10
151.1292406
20
-95.9647726
11
168.5333738
21
-97.7940207
0
LINE
8
0
10
168.5333738
20
-97.7940207
11
170.2580934
21
-81.3844094
0
LINE
8
0
10
170.2580934
20
-81.3844094
11
152.8539602
21
-79.5551613
0
LINE
8
0
10
152.8539602
20
-79.5551613
11
151.1292406
21
-95.9647726
0
LINE
8
0
10
152.9062245
20
-79.0579004
11
170.3103577
21
-80.8871485
0
LINE
8
0
10
170.3103577
20
-80.8871485
11
172.0350773
21
-64.4775372
0
LINE
8
0
10
172.0350773
20
-64.4775372
11
154.6309441
21
-62.6482891
0
LINE
8
0
10
154.6309441
20
-62.6482891
11
152.9062245
21
-79.0579004
0
LINE
8
0
10
163.4383618
20
-151.0532063
11
180.842495
21
-152.8824544
0
LINE
8
0
10
180.842495
20
-152.8824544
11
182.5672146
21
-136.4728431
0
LINE
8
0
10
182.5672146
20
-136.4728431
11
165.1630814
21
-134.643595
0
LINE
8
0
10
165.1630814
20
-134.643595
11
163.4383618
21
-151.0532063
0
LINE
8
0
10
165.2153457
20
-134.1463341
11
182.6194789
21
-135.9755822
0
LINE
8
0
10
182.6194789
20
-135.9755822
11
184.3441985
21
-119.5659709
0
LINE
8
0
10
184.3441985
20
-119.5659709
11
166.9400653
21
-117.7367228
0
LINE
8
0
10
166.9400653
20
-117.7367228
11
165.2153457
21
-134.1463341
0
LINE
8
0
10
166.9923296
20
-117.2394619
11
184.3964628
21
-119.06871
0
LINE
8
0
10
184.3964628
20
-119.06871
11
186.1211824
21
-102.6590987
0
LINE
8
0
10
186.1211824
20
-102.6590987
11
168.7170492
21
-100.8298506
0
LINE
8
0
10
168.7170492
20
-100.8298506
11
166.9923296
21
-117.2394619
0
LINE
8
0
10
168.7693135
20
-100.3325897
11
186.1734467
21
-102.1618378
0
LINE
8
0
10
186.1734467
20
-102.1618378
11
187.8981663
21
-85.7522265
0
LINE
8
0
10
187.8981663
20
-85.7522265
11
170.4940331
21
-83.9229784
0
LINE
8
0
10
170.4940331
20
-83.9229784
11
168.7693135
21
-100.3325897
0
LINE
8
0
10
170.5462974
20
-83.4257175
11
187.9504306
21
-85.2549656
0
LINE
8
0
10
187.9504306
20
-85.2549656
11
189.6751502
21
-68.8453543
0
LINE
8
0
10
189.6751502
20
-68.8453543
11
172.271017
21
-67.0161062
0
LINE
8
0
10
172.271017
20
-67.0161062
11
170.5462974
21
-83.4257175
0
LINE
8
0
10
182.8554187
20
-138.5141512
11
200.2595519
21
-140.3433993
0
LINE
8
0
10
200.2595519
20
-140.3433993
11
201.9842715
21
-123.933788
0
LINE
8
0
10
201.9842715
20
-123.933788
11
184.5801383
21
-122.1045399
0
LINE
8
0
10
184.5801383
20
-122.1045399
11
182.8554187
21
-138.5141512
0
LINE
8
0
10
184.6324026
20
-121.607279
11
202.0365358
21
-123.4365271
0
LINE
8
0
10
202.0365358
20
-123.4365271
11
203.7612554
21
-107.0269158
0
LINE
8
0
10
203.7612554
20
-107.0269158
11
186.3571222
21
-105.1976677
0
LINE
8
0
10
186.3571222
20
-105.1976677
11
184.6324026
21
-121.607279
0
LINE
8
0
10
186.4093865
20
-104.7004068
11
203.8135197
21
-106.5296549
0
LINE
8
0
10
203.8135197
20
-106.5296549
11
205.5382393
21
-90.1200436
0
LINE
8
0
10
205.5382393
20
-90.1200436
11
188.1341061
21
-88.2907955
0
LINE
8
0
10
188.1341061
20
-88.2907955
11
186.4093865
21
-104.7004068
0
LINE
8
0
10
188.1863704
20
-87.7935346
11
205.5905036
21
-89.6227827
0
LINE
8
0
10
205.5905036
20
-89.6227827
11
207.3152232
21
-73.2131714
0
LINE
8
0
10
207.3152232
20
-73.2131714
11
189.91109
21
-71.3839233
0
LINE
8
0
10
189.91109
20
-71.3839233
11
188.1863704
21
-87.7935346
0
LINE
8
0
10
181.1882749
20
-156.2925213
11
198.0103546
21
-161.1161751
0
LINE
8
0
10
198.0103546
20
-161.1161751
11
202.5583709
21
-145.2553571
0
LINE
8
0
10
202.5583709
20
-145.2553571
11
185.7362912
21
-140.4317033
0
LINE
8
0
10
185.7362912
20
-140.4317033
11
181.1882749
21
-156.2925213
0
LINE
8
0
10
214.355791
20
-170.77852
11
225.9726264
21
-146.9604777
0
LINE
8
0
10
199.5256892
20
-163.5453961
11
211.1425246
21
-139.7273538
0
LINE
8
0
10
225.9726264
20
-146.9604777
11
211.1425246
21
-139.7273538
0
LINE
8
0
10
199.5256892
20
-163.5453961
11
214.355791
21
-170.77852
0
ENDSEC
0
EOF