0
SECTION
2
HEADER
9
$INSUNITS
70
4
0
ENDSEC
0
SECTION
2
TABLES
0
TABLE
2
LTYPE
0
LTYPE
72
65
70
64
2
CONTINUOUS
3
______
73
0
40
0
0
ENDTAB
0
TABLE
2
LAYER
0
ENDTAB
0
ENDSEC
0
SECTION
2
ENTITIES
0
LINE
8
0
10
89
20
-143.5
11
125.7715441
21
-143.5
0
LINE
8
0
10
89
20
-143.5
11
89
21
-71.5
0
LINE
8
0
10
89
20
-71.5
11
129
21
-71.5
0
LINE
8
0
10
129
20
-112.7832941
11
129
21
-71.5
0
LINE
8
0
10
125.1627103
20
-149.2926668
11
147.042192
21
-151.592293
0
LINE
8
0
10
147.042192
20
-151.592293
11
147.3035132
21
-149.1059883
0
LINE
8
0
10
125.7715441
20
-143.5
11
125.1627103
21
-149.2926668
0
LINE
8
0
10
129
20
-112.7832941
11
134.4657436
21
-60.7802182
0
LINE
8
0
10
152.3671377
20
-62.6617305
11
134.4657436
21
-60.7802182
0
LINE
8
0
10
147.3035132
20
-149.1059883
11
161.2268197
21
-150.5693867
0
LINE
8
0
10
174.2466194
20
-64.9613568
11
174.5079406
21
-62.475052
0
LINE
8
0
10
174.5079406
20
-62.475052
11
152.6284589
21
-60.1754258
0
LINE
8
0
10
152.6284589
20
-60.1754258
11
152.3671377
21
-62.6617305
0
LINE
8
0
10
160.9654985
20
-153.0556915
11
179.2254266
21
-154.9748873
0
LINE
8
0
10
161.2268197
20
-150.5693867
11
160.9654985
21
-153.0556915
0
LINE
8
0
10
191.8866923
20
-69.3291738
11
192.1480135
21
-66.8428691
0
LINE
8
0
10
192.1480135
20
-66.8428691
11
174.2466194
21
-64.9613568
0
LINE
8
0
10
202.1879989
20
-142.8084809
11
202.2620371
21
-142.8162626
0
LINE
8
0
10
202.2620371
20
-142.8162626
11
209.7880865
21
-71.2106862
0
LINE
8
0
10
209.7880865
20
-71.2106862
11
191.8866923
21
-69.3291738
0
LINE
8
0
10
178.405252
20
-157.8351761
11
199.5530093
21
-163.8991979
0
LINE
8
0
10
199.5530093
20
-163.8991979
11
200.2684121
21
-161.4042919
0
LINE
8
0
10
203.4096738
20
-150.4494104
11
205.3413938
21
-143.7127023
0
LINE
8
0
10
205.3413938
20
-143.7127023
11
202.1879989
21
-142.8084809
0
LINE
8
0
10
179.2254266
20
-154.9748873
11
178.405252
21
-157.8351761
0
LINE
8
0
10
217.3644127
20
-169.7425685
11
227.0085779
21
-149.9690994
0
LINE
8
0
10
227.0085779
20
-149.9690994
11
208.1339029
21
-140.7633053
0
LINE
8
0
10
208.1339029
20
-140.7633053
11
203.4096738
21
-150.4494104
0
LINE
8
0
10
200.2684121
20
-161.4042919
11
217.3644127
21
-169.7425685
0
LINE
8
0
10
207.5944903
20
-101.6481324
11
229.473972
21
-103.9477586
0
LINE
8
0
10
229.473972
20
-103.9477586
11
231.6690697
21
-83.0627988
0
LINE
8
0
10
231.6690697
20
-83.0627988
11
209.789588
21
-80.7631726
0
LINE
8
0
10
209.789588
20
-80.7631726
11
207.5944903
21
-101.6481324
0
ENDSEC
0
EOF