0
SECTION
2
HEADER
9
$INSUNITS
70
4
0
ENDSEC
0
SECTION
2
TABLES
0
TABLE
2
LTYPE
0
LTYPE
72
65
70
64
2
CONTINUOUS
3
______
73
0
40
0
0
ENDTAB
0
TABLE
2
LAYER
0
ENDTAB
0
ENDSEC
0
SECTION
2
ENTITIES
0
LINE
8
0
10
93.1
20
-139.9
11
106.9
21
-139.9
0
LINE
8
0
10
106.9
20
-139.9
11
106.9
21
-126.1
0
LINE
8
0
10
106.9
20
-126.1
11
93.1
21
-126.1
0
LINE
8
0
10
93.1
20
-126.1
11
93.1
21
-139.9
0
LINE
8
0
10
93.1
20
-122.9
11
106.9
21
-122.9
0
LINE
8
0
10
106.9
20
-122.9
11
106.9
21
-109.1
0
LINE
8
0
10
106.9
20
-109.1
11
93.1
21
-109.1
0
LINE
8
0
10
93.1
20
-109.1
11
93.1
21
-122.9
0
LINE
8
0
10
93.1
20
-105.9
11
106.9
21
-105.9
0
LINE
8
0
10
106.9
20
-105.9
11
106.9
21
-92.1
0
LINE
8
0
10
106.9
20
-92.1
11
93.1
21
-92.1
0
LINE
8
0
10
93.1
20
-92.1
11
93.1
21
-105.9
0
LINE
8
0
10
93.1
20
-88.9
11
106.9
21
-88.9
0
LINE
8
0
10
106.9
20
-88.9
11
106.9
21
-75.1
0
LINE
8
0
10
106.9
20
-75.1
11
93.1
21
-75.1
0
LINE
8
0
10
93.1
20
-75.1
11
93.1
21
-88.9
0
LINE
8
0
10
111.1
20
-139.9
11
124.9
21
-139.9
0
LINE
8
0
10
124.9
20
-139.9
11
124.9
21
-126.1
0
LINE
8
0
10
124.9
20
-126.1
11
111.1
21
-126.1
0
LINE
8
0
10
111.1
20
-126.1
11
111.1
21
-139.9
0
LINE
8
0
10
111.1
20
-122.9
11
124.9
21
-122.9
0
LINE
8
0
10
124.9
20
-122.9
11
124.9
21
-109.1
0
LINE
8
0
10
124.9
20
-109.1
11
111.1
21
-109.1
0
LINE
8
0
10
111.1
20
-109.1
11
111.1
21
-122.9
0
LINE
8
0
10
111.1
20
-105.9
11
124.9
21
-105.9
0
LINE
8
0
10
124.9
20
-105.9
11
124.9
21
-92.1
0
LINE
8
0
10
124.9
20
-92.1
11
111.1
21
-92.1
0
LINE
8
0
10
111.1
20
-92.1
11
111.1
21
-105.9
0
LINE
8
0
10
111.1
20
-88.9
11
124.9
21
-88.9
0
LINE
8
0
10
124.9
20
-88.9
11
124.9
21
-75.1
0
LINE
8
0
10
124.9
20
-75.1
11
111.1
21
-75.1
0
LINE
8
0
10
111.1
20
-75.1
11
111.1
21
-88.9
0
LINE
8
0
10
129.6165525
20
-146.1409547
11
143.3409547
21
-147.5834475
0
LINE
8
0
10
143.3409547
20
-147.5834475
11
144.7834475
21
-133.8590453
0
LINE
8
0
10
144.7834475
20
-133.8590453
11
131.0590453
21
-132.4165525
0
LINE
8
0
10
131.0590453
20
-132.4165525
11
129.6165525
21
-146.1409547
0
LINE
8
0
10
131.3935364
20
-129.2340825
11
145.1179386
21
-130.6765753
0
LINE
8
0
10
145.1179386
20
-130.6765753
11
146.5604314
21
-116.9521731
0
LINE
8
0
10
146.5604314
20
-116.9521731
11
132.8360292
21
-115.5096803
0
LINE
8
0
10
132.8360292
20
-115.5096803
11
131.3935364
21
-129.2340825
0
LINE
8
0
10
133.1705203
20
-112.3272103
11
146.8949225
21
-113.7697031
0
LINE
8
0
10
146.8949225
20
-113.7697031
11
148.3374153
21
-100.0453009
0
LINE
8
0
10
148.3374153
20
-100.0453009
11
134.6130131
21
-98.6028081
0
LINE
8
0
10
134.6130131
20
-98.6028081
11
133.1705203
21
-112.3272103
0
LINE
8
0
10
134.9475042
20
-95.4203381
11
148.6719064
21
-96.8628309
0
LINE
8
0
10
148.6719064
20
-96.8628309
11
150.1143992
21
-83.1384287
0
LINE
8
0
10
150.1143992
20
-83.1384287
11
136.389997
21
-81.6959359
0
LINE
8
0
10
136.389997
20
-81.6959359
11
134.9475042
21
-95.4203381
0
LINE
8
0
10
136.7244881
20
-78.5134659
11
150.4488903
21
-79.9559587
0
LINE
8
0
10
150.4488903
20
-79.9559587
11
151.8913831
21
-66.2315565
0
LINE
8
0
10
151.8913831
20
-66.2315565
11
138.1669809
21
-64.7890637
0
LINE
8
0
10
138.1669809
20
-64.7890637
11
136.7244881
21
-78.5134659
0
LINE
8
0
10
147.7792678
20
-145.5361623
11
161.50367
21
-146.9786551
0
LINE
8
0
10
161.50367
20
-146.9786551
11
162.9461628
21
-133.2542529
0
LINE
8
0
10
162.9461628
20
-133.2542529
11
149.2217606
21
-131.8117601
0
LINE
8
0
10
149.2217606
20
-131.8117601
11
147.7792678
21
-145.5361623
0
LINE
8
0
10
149.5562517
20
-128.6292901
11
163.2806539
21
-130.0717829
0
LINE
8
0
10
163.2806539
20
-130.0717829
11
164.7231467
21
-116.3473807
0
LINE
8
0
10
164.7231467
20
-116.3473807
11
150.9987445
21
-114.9048879
0
LINE
8
0
10
150.9987445
20
-114.9048879
11
149.5562517
21
-128.6292901
0
LINE
8
0
10
151.3332356
20
-111.7224179
11
165.0576378
21
-113.1649107
0
LINE
8
0
10
165.0576378
20
-113.1649107
11
166.5001306
21
-99.4405085
0
LINE
8
0
10
166.5001306
20
-99.4405085
11
152.7757284
21
-97.9980157
0
LINE
8
0
10
152.7757284
20
-97.9980157
11
151.3332356
21
-111.7224179
0
LINE
8
0
10
153.1102195
20
-94.8155457
11
166.8346217
21
-96.2580385
0
LINE
8
0
10
166.8346217
20
-96.2580385
11
168.2771145
21
-82.5336363
0
LINE
8
0
10
168.2771145
20
-82.5336363
11
154.5527123
21
-81.0911435
0
LINE
8
0
10
154.5527123
20
-81.0911435
11
153.1102195
21
-94.8155457
0
LINE
8
0
10
154.8872034
20
-77.9086735
11
168.6116056
21
-79.3511663
0
LINE
8
0
10
168.6116056
20
-79.3511663
11
170.0540984
21
-65.6267641
0
LINE
8
0
10
170.0540984
20
-65.6267641
11
156.3296962
21
-64.1842713
0
LINE
8
0
10
156.3296962
20
-64.1842713
11
154.8872034
21
-77.9086735
0
LINE
8
0
10
165.4193407
20
-149.9039794
11
179.1437429
21
-151.3464722
0
LINE
8
0
10
179.1437429
20
-151.3464722
11
180.5862357
21
-137.62207
0
LINE
8
0
10
180.5862357
20
-137.62207
11
166.8618335
21
-136.1795772
0
LINE
8
0
10
166.8618335
20
-136.1795772
11
165.4193407
21
-149.9039794
0
LINE
8
0
10
167.1963246
20
-132.9971072
11
180.9207268
21
-134.4396
0
LINE
8
0
10
180.9207268
20
-134.4396
11
182.3632196
21
-120.7151978
0
LINE
8
0
10
182.3632196
20
-120.7151978
11
168.6388174
21
-119.272705
0
LINE
8
0
10
168.6388174
20
-119.272705
11
167.1963246
21
-132.9971072
0
LINE
8
0
10
168.9733085
20
-116.090235
11
182.6977107
21
-117.5327278
0
LINE
8
0
10
182.6977107
20
-117.5327278
11
184.1402035
21
-103.8083256
0
LINE
8
0
10
184.1402035
20
-103.8083256
11
170.4158013
21
-102.3658328
0
LINE
8
0
10
170.4158013
20
-102.3658328
11
168.9733085
21
-116.090235
0
LINE
8
0
10
170.7502924
20
-99.1833628
11
184.4746946
21
-100.6258556
0
LINE
8
0
10
184.4746946
20
-100.6258556
11
185.9171874
21
-86.9014534
0
LINE
8
0
10
185.9171874
20
-86.9014534
11
172.1927852
21
-85.4589606
0
LINE
8
0
10
172.1927852
20
-85.4589606
11
170.7502924
21
-99.1833628
0
LINE
8
0
10
172.5272763
20
-82.2764906
11
186.2516785
21
-83.7189834
0
LINE
8
0
10
186.2516785
20
-83.7189834
11
187.6941713
21
-69.9945812
0
LINE
8
0
10
187.6941713
20
-69.9945812
11
173.9697691
21
-68.5520884
0
LINE
8
0
10
173.9697691
20
-68.5520884
11
172.5272763
21
-82.2764906
0
LINE
8
0
10
184.8363976
20
-137.3649243
11
198.5607998
21
-138.8074171
0
LINE
8
0
10
198.5607998
20
-138.8074171
11
200.0032926
21
-125.0830149
0
LINE
8
0
10
200.0032926
20
-125.0830149
11
186.2788904
21
-123.6405221
0
LINE
8
0
10
186.2788904
20
-123.6405221
11
184.8363976
21
-137.3649243
0
LINE
8
0
10
186.6133815
20
-120.4580521
11
200.3377837
21
-121.9005449
0
LINE
8
0
10
200.3377837
20
-121.9005449
11
201.7802765
21
-108.1761427
0
LINE
8
0
10
201.7802765
20
-108.1761427
11
188.0558743
21
-106.7336499
0
LINE
8
0
10
188.0558743
20
-106.7336499
11
186.6133815
21
-120.4580521
0
LINE
8
0
10
188.3903654
20
-103.5511799
11
202.1147676
21
-104.9936727
0
LINE
8
0
10
202.1147676
20
-104.9936727
11
203.5572604
21
-91.2692705
0
LINE
8
0
10
203.5572604
20
-91.2692705
11
189.8328582
21
-89.8267777
0
LINE
8
0
10
189.8328582
20
-89.8267777
11
188.3903654
21
-103.5511799
0
LINE
8
0
10
190.1673493
20
-86.6443077
11
203.8917515
21
-88.0868005
0
LINE
8
0
10
203.8917515
20
-88.0868005
11
205.3342443
21
-74.3623983
0
LINE
8
0
10
205.3342443
20
-74.3623983
11
191.6098421
21
-72.9199055
0
LINE
8
0
10
191.6098421
20
-72.9199055
11
190.1673493
21
-86.6443077
0
LINE
8
0
10
183.3387194
20
-155.5047471
11
196.6041308
21
-159.3085427
0
LINE
8
0
10
196.6041308
20
-159.3085427
11
200.4079264
21
-146.0431313
0
LINE
8
0
10
200.4079264
20
-146.0431313
11
187.142515
21
-142.2393357
0
LINE
8
0
10
187.142515
20
-142.2393357
11
183.3387194
21
-155.5047471
0
LINE
8
0
10
215.9260758
20
-164.4793767
11
221.9755976
21
-152.0760189
0
LINE
8
0
10
221.9755976
20
-152.0760189
11
209.5722398
21
-146.0264971
0
LINE
8
0
10
209.5722398
20
-146.0264971
11
203.522718
21
-158.4298549
0
LINE
8
0
10
203.522718
20
-158.4298549
11
215.9260758
21
-164.4793767
0
ENDSEC
0
EOF